<svg xmlns="http://www.w3.org/2000/svg" width="189" height="189" fill="none" viewBox="0 0 189 189">
<!-- SVG created with Arrow, by QuiverAI (https://quiver.ai) -->
  <path d="m72.62 60.11-2.17-0.04-1.44 12.44-1.99 0.81c-9.74 8.84-21.57 17.45-26.6 31.45-3.63 10.13-2.97 23.86-2.15 42.3l1.94 41.79 110.2 0.05-4.79-53.82c-0.71-5.85-2.77-11.5-5.42-18.37l-1.49-5.66-2.58-0.8-6.37-19.4c-2.41-5.55-6.86-11.89-12.58-14.53l-7.36-3.47-2.35-2.82-34.86-9.93z" fill="url(#paint0_linear_123_13120)"/>
  <path d="m110.1 73.04-1.46-2.93-2.34 6.64 0.24 5.5 1.61 2.5 5.22 9.98c-1.32-5.84-0.74-7.57 4.21-9.86l-6.27-10.26-1.21-1.57z" fill="#6A7986"/>
  <path d="m73.31 58.85-1.02 0.73v3.57l4.69 2.88 5.54 2.72 14.53 4.06 8.94 0.01 1.49-2.78 0.58-0.62-1.02-0.01-33.73-10.56z" fill="#607280"/>
  <path d="m69.22 29.71c-2.96 1.27-2.6 8.85-0.54 14.14 1.91 4.94 3.41 6.66 6.41 6.37l-0.2 8.1c0.42 3.59 9.88 10.8 16.9 12.78 5.48 1.6 12.92 2.27 15.82-0.87 4.31-3.94 4.99-6.3 8.82-19.81 1.46-4.46 0.96-6.15 0.25-15.59l0.3-10.02c0.88-6.77-1.16-10.03-6.81-16.1-5.08-4.85-10.29-6.55-16.36-6.31-6.73 0.05-11.18 2.31-16.57 5.33-7.13 3.28-8.57 9.18-8.02 21.98z" fill="url(#paint1_linear_123_13120)"/>
  <path d="m77.24 7.73c-6.95 3.08-8.41 9.06-7.93 21.38l0.22 0.95c2.62-1.4 5.38 3.35 7.46 7.02l0.92-0.07c0.21-5.76 1.25-8.67 4.2-12.4-1.05-4.6-2.09-8.33-0.59-13.69l-4.28-3.19z" fill="url(#paint2_linear_123_13120)"/>
  <path d="m111.7 10.39c4.98 5.22 5.38 8.72 4.88 14.72l-0.58 5.87-0.84-8.46c0.09-5.1-1.09-8.78-3.46-12.13z" fill="url(#paint3_linear_123_13120)"/>
  <path d="m75.16 49.88c-0.21-3.17 0.23-8.07-1.19-8.17-1.58-0.11-1.83-1.73-0.79-3.99l0.93-0.78c-0.84-2.78-2.44-5.83-4.04-5.61-1.88 0.28-2.02 5.64-0.97 8.28 1.5 4.01 3.66 9 4.81 10 0.41 0.37 0.83 0.4 1.25 0.27z" fill="url(#paint4_linear_123_13120)"/>
  <path d="m82.86 10.06c3.59-4.67 9.12-7 15.05-6.4 6.18 0.64 11.03 4.1 15.2 9.46 2.41 3.49 2.7 5.99 2.48 11.99l1.13 11.21-0.41-0.28c-1.53-1.25-2.5-2.09-4.8-1.8-2.42 0.32-4.78 1.46-5.4 2.17-1.04 1.7-0.2 3.4 1.11 5.59 1.24 1.96 1.86 3.06 1.02 4.62-0.97 1.04-2.43 0.79-3.9 0.1-1.53-0.84-3.43-0.7-5.2-0.41-2.19 0.35-2.48-1-2.48-2.9l-6.94 8.25 0.22 2.56-0.7-0.71 0.21-2.57 6.28-8.1c-2.57 3.87-7.59 5.89-10.54 2.68-2.95-2.78-4.22-6.27-4.08-8.51 0.7-4.2 1.04-6.29 3.85-10.36-1.54-4.46-2.87-9.49-2.1-16.59z" fill="url(#paint5_linear_123_13120)"/>
  <path d="m70.01 32.71c-1.19 1.7-1.15 5.16-0.28 6.86l0.28-3.53c0.21-1.33 0.8-2.27 1.91-2.87-0.56-0.97-1.18-1.25-1.91-0.46z" fill="#B75742"/>
  <path d="m73.76 38.01c-1.25 0.9-1.63 3.32-1.04 4.51l2.02 1.83-0.21-3.23-0.77-3.11z" fill="#B75742"/>
  <path d="m76.11 55.59 0.31-2.46c1.7 4.66 6.44 10.66 11.49 13.37-4.1-2.29-9.01-6.61-11.8-10.91z" fill="#B75742"/>
  <path d="m86.08 51.08c0.44 5.13 2.7 12.48 6.19 16.55l0.34 0.22c-4.26-2.12-7.29-9.77-6.53-16.77z" fill="#EBA58B"/>
  <path d="m96.89 57.45c2.63 1.32 7.69 1.67 9.73-0.42l0.71-0.97-3.09 0.91c-2.5 0.34-4.79 0.2-7.35 0.48z" fill="#D17561"/>
  <path d="m93.08 52.12 9.54 0.39 7.17 0.14 0.42-0.46 0.67 0.46-1.77 1.26c-2.35 1.03-3.96 1.52-6.38 1.24-3.62-0.42-6.72-1.74-9.65-3.03z" fill="#94362D"/>
  <path d="m94.92 52.51 5.54 0.28 7.5 0.35 0.77-0.07-0.97 0.76c-1.7 0.84-3.04 0.89-5.15 0.61-2.88-0.42-5-0.94-7.69-1.93z" fill="#FEFFFE"/>
  <path d="m110.4 46.17c1.7 1.95 2.88 3.65 2.32 6.29l-0.9 2.26-0.07-1.31 0.7-2.5c-0.21-1.9-1.32-3.07-2.46-4.46l0.41-0.28z" fill="#94362D"/>
  <path d="m97.28 41.92-0.84 2.19c-0.28 1.19-0.07 1.92 1.32 1.92l2.56-0.28c1.39-0.14 2.12 0.56 3.51 0.97 1.6 0.42 3.31 0.35 4.63-0.83 0.97-1.26 0.75-2.36-0.02-3.83l-1.11-2.11c-0.97-1.63-1.59-3.02-0.97-5.28l0.35-0.97-0.28 0.21c-1.32 2.12-0.82 3.96 0.28 5.73 1.04 1.7 2.23 3.57 1.49 5.06-0.97 1.12-2.46 1.19-3.78 0.84-1.39-0.49-2.23-0.91-4.17-0.7-1.53 0.21-2.96 0.7-3.59-0.21-0.42-0.67 0.07-1.89 0.62-2.71z" fill="#B75742"/>
  <path d="m103.5 42.14c-0.7 0.55-0.76 1.25 0.14 1.54 1.26 0.28 2.65-0.21 3.17-0.87 0.35-0.6-0.31-1.4-1.08-1.47-0.9-0.08-1.52 0.2-2.23 0.8z" fill="#F7D8D0"/>
  <path d="m106.8 34.21c1.77-1.53 4.19-2.95 6.92-3.16 2.26-0.21 3.03 1.56 2.96 3.78l-0.21 0.93c-1.54-1.42-3.34-2.19-5.5-1.84-1.53 0.21-2.71 0.98-4.1 1.91l-0.07-1.62z" fill="#211915"/>
  <path d="m107.3 35.1c1.11-1.19 2.3-1.54 3.9-1.47 1.6 0.14 2.44 1.33 2.58 2.48-1.39 1.53-4.74 1.81-6.48-1.01z" fill="#9E5146"/>
  <path d="m108.8 34.76c0.63-0.63 2.02-0.77 2.72 0 0.52 0.66 0 1.5-0.7 1.78-1.11 0.52-2.16-0.35-2.23-0.84-0.14-0.46 0-0.67 0.21-0.94z" fill="#211915"/>
  <path d="m110 34.9c0.25-0.25 0.63-0.18 0.83 0 0.21 0.27 0.07 0.63-0.21 0.71-0.42 0.14-0.7-0.15-0.77-0.29-0.07-0.21 0-0.28 0.15-0.42z" fill="#5A4A42"/>
  <path d="m86.66 32.12 3.1-3.1c1.32-1.19 3.33-1.12 5.1-0.84l5.39 0.77 0.07 1.77-1.39 1.54c-1.84-0.63-4.77-1.33-7.64-0.77-1.84 0.35-3.03 0.84-4.63 1.4v-0.77z" fill="#211915"/>
  <path d="m89.01 33.5c1.32-1.04 3.33-1.74 5.42-1.38 1.6 0.34 2.89 1.04 3.79 2.22-1.39 3.38-5.95 4.49-9.13 1.99l-1.32-1.47 1.24-1.36z" fill="#C27363"/>
  <path d="m91.15 33.43c1.04-0.91 2.57-0.91 3.68-0.35 0.84 0.49 1.33 1.19 1.48 2.09-1.19 1.04-3.28 1.12-4.6 0.28-0.97-0.66-1.25-1.25-0.56-2.02z" fill="#211915"/>
  <path d="m92.54 33.43c0.42-0.35 0.97-0.35 1.39-0.07 0.35 0.28 0.43 0.7 0.21 1.05-0.42 0.42-1.18 0.35-1.6 0-0.35-0.35-0.42-0.7 0-0.98z" fill="#5A4A42"/>
  <path d="m85.16 35.76 3.65-0.94 0.35 0.21-3.42 1.29-0.58-0.56z" fill="#B75742"/>
  <path d="m108.6 23.11-5.68 0.49-4.86-1.04 4.79 0.62 5.39-0.55 4.85-0.21-4.49 0.69z" fill="#B75742"/>
  <path d="m94.91 19.81 3.91-0.21 5.89 0.83 5.22-0.34v0.21l-5.15 0.55-6.03-0.9-3.84-0.14z" fill="#B75742"/>
  <path d="m69.02 72.09c8.39 6.82 20.29 11.35 35.89 11l0.21-8.03c-0.21-1.25 0.21-1.53 2.04-1.46-12.46 0-24.71-3.56-36.93-13.49l-1.21 11.98z" fill="#B6C3CF"/>
  <path d="m39.71 108.9c4.1-8.98 11.05-12.99 17.71-11.8 9.36 0.84 15.42 14.61 16.5 28.58 2.07 16.32 2.97 33.06 5.92 63.11h-4.96l-0.9-52.5-0.84 52.5-19.43-0.07c-4.17-25.42-5.76-53.82-4.38-85.73l-9.62 5.91z" fill="url(#paint6_linear_123_13120)"/>
  <path d="m55.42 127.3 9.01 35.03 6.53 26.14 4.2 0.07-0.21-6.07-7.3-20-12.23-35.17z" fill="url(#paint7_linear_123_13120)"/>
  <path d="m39.64 108.6c3.48-9.63 12.15-12.84 15.88-11.87l3.42 0.49 0.73 0.42c0.49-3.53 6.25-9.74 15.99-20.24l-0.42-0.49c-8.73 9.05-15.33 16.33-15.88 19.99-7.71-1.49-13.93 2-19.86 11.56l0.14 0.14z" fill="#6A7986"/>
  <path d="m113.9 93.12c0-4.08 1.84-6.46 4.03-8.06l-7.1-11.32-1.25-0.73c3.38 4.33 5.74 11.15 2.5 19.83-0.2 2.42 2.02 7.95 4.97 15.29 6.06 14.66 16.89 40.08 21.81 66.6l5.54 3.49 2.01-5.09-2.63 4.13-4.2-2.53c-3.42-22.07-6.66-32.72-24.19-74.59-1.11-2.71-1.7-4.41-1.49-7.02z" fill="#6A7986"/>
  <path d="m133 114.6 5.69-3.8 3.55 10.93-6.73 2.88-2.51-10.01z" fill="#84939F" stroke="#6A7986" stroke-miterlimit="10" stroke-width=".5"/>
  <path d="m135.2 123.3 7.16 19.08 3.55 4.24-0.24 0.35-4.2-3.39-6.27-20.28z" fill="#84939F" stroke="#6A7986" stroke-miterlimit="10" stroke-width=".5"/>
  <defs>
    <linearGradient id="paint0_linear_123_13120" x1="94.5" x2="94.5" y1="58.85" y2="188.9" gradientUnits="userSpaceOnUse">
      <stop stop-color="#B6C3CF" offset="0"/>
      <stop stop-color="#B6C3CF" offset=".5104"/>
      <stop stop-color="#979DA5" offset="1"/>
    </linearGradient>
    <linearGradient id="paint1_linear_123_13120" x1="93.77" x2="93.77" y1="2.346" y2="71.41" gradientUnits="userSpaceOnUse">
      <stop stop-color="#E09678" offset="0"/>
      <stop stop-color="#F0B199" offset="1"/>
    </linearGradient>
    <linearGradient id="paint2_linear_123_13120" x1="75.86" x2="75.86" y1="7.727" y2="37.08" gradientUnits="userSpaceOnUse">
      <stop stop-color="#928783" offset="0"/>
      <stop stop-color="#726A66" offset="1"/>
    </linearGradient>
    <linearGradient id="paint3_linear_123_13120" x1="114.4" x2="114.4" y1="10.39" y2="30.98" gradientUnits="userSpaceOnUse">
      <stop stop-color="#928783" offset="0"/>
      <stop stop-color="#726A66" offset="1"/>
    </linearGradient>
    <linearGradient id="paint4_linear_123_13120" x1="71.91" x2="71.91" y1="31.28" y2="49.96" gradientUnits="userSpaceOnUse">
      <stop stop-color="#E09678" offset="0"/>
      <stop stop-color="#F0B199" offset="1"/>
    </linearGradient>
    <linearGradient id="paint5_linear_123_13120" x1="98.93" x2="98.93" y1="3.541" y2="70.46" gradientUnits="userSpaceOnUse">
      <stop stop-color="#F0B199" offset="0"/>
      <stop stop-color="#E09678" offset="1"/>
    </linearGradient>
    <linearGradient id="paint6_linear_123_13120" x1="59.77" x2="59.77" y1="96.82" y2="188.8" gradientUnits="userSpaceOnUse">
      <stop stop-color="#B6C3CF" offset="0"/>
      <stop stop-color="#979DA5" offset="1"/>
    </linearGradient>
    <linearGradient id="paint7_linear_123_13120" x1="65.29" x2="65.29" y1="127.3" y2="188.5" gradientUnits="userSpaceOnUse">
      <stop stop-color="#979DA5" offset="0"/>
      <stop stop-color="#6A7986" offset="1"/>
    </linearGradient>
  </defs>
</svg>