<svg width="61" height="57" viewBox="0 0 61 57" fill="none" xmlns="http://www.w3.org/2000/svg">
<path d="M5.5 0C2.46243 0 0 2.46243 0 5.5V37.5C0 40.5376 2.46243 43 5.5 43H16L20 38H5.5C5.22386 38 5 37.7761 5 37.5V5.5C5 5.22386 5.22386 5 5.5 5H55.5C55.7761 5 56 5.22386 56 5.5V37.5C56 37.7761 55.7761 38 55.5 38H41.5L45.5 43H55.5C58.5376 43 61 40.5376 61 37.5V5.5C61 2.46244 58.5376 0 55.5 0H5.5Z" fill="white"/>
<path d="M31.9967 36.1886C31.2009 35.2907 29.7991 35.2907 29.0033 36.1886L13.9486 53.1734C12.8048 54.4638 13.7209 56.5 15.4453 56.5H45.5547C47.2791 56.5 48.1952 54.4638 47.0514 53.1734L31.9967 36.1886Z" fill="white"/>
</svg>
