<svg width="85" height="93" viewBox="0 0 85 93" fill="none" xmlns="http://www.w3.org/2000/svg">
<path d="M52.6164 11.0463C53.7679 11.8413 53.7679 13.5428 52.6164 14.3379L37.1364 25.0265C35.8097 25.9425 34 24.9929 34 23.3807V17.1922C19.0694 20.8846 8 34.3706 8 50.4421C8 69.3578 23.3342 84.692 42.25 84.692C61.1658 84.692 76.5 69.3578 76.5 50.4421C76.5 38.8869 70.7816 28.6671 62.0024 22.4578C60.1988 21.1821 59.7708 18.6859 61.0465 16.8823C62.3221 15.0787 64.8184 14.6507 66.622 15.9263C77.4302 23.5708 84.5 36.1806 84.5 50.4421C84.5 73.7761 65.584 92.692 42.25 92.692C18.916 92.692 0 73.7761 0 50.4421C0 29.9313 14.6155 12.8341 34 8.99711V2.00345C34 0.391252 35.8097 -0.558381 37.1364 0.357654L52.6164 11.0463Z" fill="white"/>
<path fill-rule="evenodd" clip-rule="evenodd" d="M44.2384 39.8041C45.9408 36.825 48.7497 34.1921 52.5 34.1921C56.2503 34.1921 59.0592 36.825 60.7616 39.8041C62.5124 42.8681 63.5 46.9007 63.5 51.1921C63.5 55.4834 62.5124 59.516 60.7616 62.58C59.0592 65.5591 56.2503 68.192 52.5 68.192C48.7497 68.192 45.9408 65.5591 44.2384 62.58C42.4876 59.516 41.5 55.4834 41.5 51.1921C41.5 46.9007 42.4876 42.8681 44.2384 39.8041ZM49.4479 42.781C48.3033 44.784 47.5 47.7514 47.5 51.1921C47.5 54.6327 48.3033 57.6001 49.4479 59.6031C50.641 61.691 51.832 62.1921 52.5 62.1921C53.168 62.1921 54.359 61.691 55.5521 59.6031C56.6967 57.6001 57.5 54.6327 57.5 51.1921C57.5 47.7514 56.6967 44.784 55.5521 42.781C54.359 40.6931 53.168 40.1921 52.5 40.1921C51.832 40.1921 50.641 40.6931 49.4479 42.781Z" fill="white"/>
<path d="M21.8004 40.2199C20.4351 41.1586 20.0892 43.0263 21.0279 44.3916C21.9665 45.757 23.8343 46.1028 25.1996 45.1642L28.5 42.8951L28.5 64.192C28.5 65.8489 29.8432 67.192 31.5 67.192C33.1569 67.192 34.5 65.8489 34.5 64.192V37.1921C34.5 36.078 33.8826 35.0556 32.8967 34.537C31.9107 34.0183 30.7185 34.0888 29.8004 34.7199L21.8004 40.2199Z" fill="white"/>
</svg>
