<svg width="52" height="52" viewBox="0 0 52 52" fill="none" xmlns="http://www.w3.org/2000/svg">
<path d="M25 13.5C25 12.6716 24.3284 12 23.5 12C22.6716 12 22 12.6716 22 13.5V38C22 38.8284 22.6716 39.5 23.5 39.5C24.3284 39.5 25 38.8284 25 38V13.5Z" fill="white"/>
<path d="M35 16.5C35 15.6716 34.3284 15 33.5 15C32.6716 15 32 15.6716 32 16.5V34.5C32 35.3284 32.6716 36 33.5 36C34.3284 36 35 35.3284 35 34.5V16.5Z" fill="white"/>
<path d="M20 19C20 18.1716 19.3284 17.5 18.5 17.5C17.6716 17.5 17 18.1716 17 19V32C17 32.8284 17.6716 33.5 18.5 33.5C19.3284 33.5 20 32.8284 20 32V19Z" fill="white"/>
<path d="M30 21.5C30 20.6716 29.3284 20 28.5 20C27.6716 20 27 20.6716 27 21.5V29.5C27 30.3284 27.6716 31 28.5 31C29.3284 31 30 30.3284 30 29.5V21.5Z" fill="white"/>
<path d="M40 22.5C40 21.6716 39.3284 21 38.5 21C37.6716 21 37 21.6716 37 22.5V28.5C37 29.3284 37.6716 30 38.5 30C39.3284 30 40 29.3284 40 28.5V22.5Z" fill="white"/>
<path d="M15 23.5C15 22.6716 14.3284 22 13.5 22C12.6716 22 12 22.6716 12 23.5V27.5C12 28.3284 12.6716 29 13.5 29C14.3284 29 15 28.3284 15 27.5V23.5Z" fill="white"/>
<path fill-rule="evenodd" clip-rule="evenodd" d="M0 26C0 11.6406 11.6406 0 26 0C40.3594 0 52 11.6406 52 26C52 40.3594 40.3594 52 26 52C11.6406 52 0 40.3594 0 26ZM26 5C14.4019 5 5 14.4021 5 26C5 37.5979 14.4019 47 26 47C37.5981 47 47 37.5979 47 26C47 14.4021 37.5981 5 26 5Z" fill="white"/>
</svg>
