<svg width="59" height="59" viewBox="0 0 59 59" fill="none" xmlns="http://www.w3.org/2000/svg">
<path d="M15.75 26C17.8211 26 19.5 27.6789 19.5 29.75C19.5 31.8211 17.8211 33.5 15.75 33.5C13.6789 33.5 12 31.8211 12 29.75C12 27.6789 13.6789 26 15.75 26Z" fill="white"/>
<path d="M33 29.75C33 27.6789 31.3211 26 29.25 26C27.1789 26 25.5 27.6789 25.5 29.75C25.5 31.8211 27.1789 33.5 29.25 33.5C31.3211 33.5 33 31.8211 33 29.75Z" fill="white"/>
<path d="M42.75 26C44.8211 26 46.5 27.6789 46.5 29.75C46.5 31.8211 44.8211 33.5 42.75 33.5C40.6789 33.5 39 31.8211 39 29.75C39 27.6789 40.6789 26 42.75 26Z" fill="white"/>
<path fill-rule="evenodd" clip-rule="evenodd" d="M29.5 0C13.2076 0 0 13.2076 0 29.5C0 45.7924 13.2076 59 29.5 59C45.7924 59 59 45.7924 59 29.5C59 13.2076 45.7924 0 29.5 0ZM4 29.5C4 15.4167 15.4167 4 29.5 4C43.5833 4 55 15.4167 55 29.5C55 43.5833 43.5833 55 29.5 55C15.4167 55 4 43.5833 4 29.5Z" fill="white"/>
</svg>
