<svg width="99" height="117" viewBox="0 0 99 117" fill="none" xmlns="http://www.w3.org/2000/svg">
<path d="M1.08993 5.46009C0 7.59921 0 10.3995 0 16V101C0 106.601 0 109.401 1.08993 111.54C2.04867 113.422 3.57847 114.951 5.46009 115.91C7.59921 117 10.3995 117 16 117H26C31.6005 117 34.4008 117 36.5399 115.91C38.4215 114.951 39.9513 113.422 40.9101 111.54C42 109.401 42 106.601 42 101V16C42 10.3995 42 7.59921 40.9101 5.46009C39.9513 3.57847 38.4215 2.04867 36.5399 1.08993C34.4008 0 31.6005 0 26 0H16C10.3995 0 7.59921 0 5.46009 1.08993C3.57847 2.04867 2.04867 3.57847 1.08993 5.46009Z" fill="white"/>
<path d="M58.0899 5.46009C57 7.59921 57 10.3995 57 16V101C57 106.601 57 109.401 58.0899 111.54C59.0487 113.422 60.5785 114.951 62.4601 115.91C64.5992 117 67.3995 117 73 117H83C88.6005 117 91.4008 117 93.5399 115.91C95.4215 114.951 96.9513 113.422 97.9101 111.54C99 109.401 99 106.601 99 101V16C99 10.3995 99 7.59921 97.9101 5.46009C96.9513 3.57847 95.4215 2.04867 93.5399 1.08993C91.4008 0 88.6005 0 83 0H73C67.3995 0 64.5992 0 62.4601 1.08993C60.5785 2.04867 59.0487 3.57847 58.0899 5.46009Z" fill="white"/>
</svg>
