<svg width="52" height="52" viewBox="0 0 52 52" fill="none" xmlns="http://www.w3.org/2000/svg">
<path d="M26.5 13.5C27.6045 13.5 28.5 12.6045 28.5 11.5C28.5 10.3955 27.6045 9.5 26.5 9.5C25.3955 9.5 24.5 10.3955 24.5 11.5C24.5 12.6045 25.3955 13.5 26.5 13.5Z" fill="white"/>
<path d="M35.814 14.7927L23.0215 23.782C21.5444 24.3699 20.5 25.813 20.5 27.5C20.5 29.709 22.291 31.5 24.5 31.5C26.187 31.5 27.6299 30.4556 28.2178 28.9783L37.207 16.186C37.8516 15.269 36.731 14.1484 35.814 14.7927Z" fill="white"/>
<path d="M18 16C18 17.1045 17.1045 18 16 18C14.8955 18 14 17.1045 14 16C14 14.8955 14.8955 14 16 14C17.1045 14 18 14.8955 18 16Z" fill="white"/>
<path d="M16 38C17.1045 38 18 37.1045 18 36C18 34.8955 17.1045 34 16 34C14.8955 34 14 34.8955 14 36C14 37.1045 14.8955 38 16 38Z" fill="white"/>
<path d="M38.5 36C38.5 37.1045 37.6045 38 36.5 38C35.3955 38 34.5 37.1045 34.5 36C34.5 34.8955 35.3955 34 36.5 34C37.6045 34 38.5 34.8955 38.5 36Z" fill="white"/>
<path d="M40.5 28C41.6045 28 42.5 27.1045 42.5 26C42.5 24.8955 41.6045 24 40.5 24C39.3955 24 38.5 24.8955 38.5 26C38.5 27.1045 39.3955 28 40.5 28Z" fill="white"/>
<path d="M13.5 26C13.5 27.1045 12.6045 28 11.5 28C10.3955 28 9.5 27.1045 9.5 26C9.5 24.8955 10.3955 24 11.5 24C12.6045 24 13.5 24.8955 13.5 26Z" fill="white"/>
<path fill-rule="evenodd" clip-rule="evenodd" d="M26 0C11.6406 0 0 11.6406 0 26C0 40.3594 11.6406 52 26 52C40.3594 52 52 40.3594 52 26C52 11.6406 40.3594 0 26 0ZM5 26C5 14.4021 14.4019 5 26 5C37.5981 5 47 14.4021 47 26C47 37.5979 37.5981 47 26 47C14.4019 47 5 37.5979 5 26Z" fill="white"/>
</svg>
