<svg width="58" height="53" viewBox="0 0 58 53" fill="none" xmlns="http://www.w3.org/2000/svg">
<path d="M54.656 52.4811C55.474 53.2233 56.7388 53.1619 57.4811 52.3439C58.2234 51.5259 58.162 50.2611 57.344 49.5188L3.34399 0.518894C2.52599 -0.223366 1.26115 -0.161965 0.518894 0.656035C-0.223365 1.47404 -0.161965 2.73888 0.656035 3.48114L54.656 52.4811Z" fill="white"/>
<path d="M24.9999 13.4442L33.6868 5.88336C34.9811 4.75687 36.9999 5.67613 36.9999 7.39197V24.4459L24.9999 13.4442Z" fill="white"/>
<path d="M20.9148 35.9999H9.99986C7.23844 35.9999 4.99986 33.7613 4.99986 30.9999V21.9999C4.99986 19.2385 7.23844 16.9999 9.99986 16.9999L37.0017 41.9998L37.0009 43.2581C37.0004 44.0191 36.9999 44.8021 36.9999 45.6077C36.9999 47.3236 34.9811 48.2428 33.6868 47.1163L20.9148 35.9999Z" fill="white"/>
</svg>
