<svg width="79" height="58" viewBox="0 0 79 58" fill="none" xmlns="http://www.w3.org/2000/svg">
<path d="M15.9149 38.5H5C2.23858 38.5 0 36.2614 0 33.5V24.5C0 21.7385 2.23858 19.5 5 19.5H15.9149L28.687 8.38354C29.9812 7.25705 32 8.17631 32 9.89215V48.1078C32 49.8236 29.9812 50.7429 28.687 49.6164L15.9149 38.5Z" fill="white"/>
<path fill-rule="evenodd" clip-rule="evenodd" d="M39.2965 16.076C40.083 15.3004 41.3493 15.3092 42.1249 16.0956C45.1561 19.1692 47 23.8627 47 29C47 34.1373 45.1561 38.8307 42.1249 41.9043C41.3493 42.6908 40.083 42.6996 39.2965 41.924C38.5101 41.1484 38.5013 39.8821 39.2769 39.0956C41.4743 36.8674 43 33.2305 43 29C43 24.7694 41.4743 21.1325 39.2769 18.9043C38.5013 18.1179 38.5101 16.8516 39.2965 16.076Z" fill="white"/>
<path d="M68.0825 0.461601C67.509 -0.136226 66.5594 -0.155953 65.9616 0.41754C65.3638 0.991033 65.344 1.94058 65.9175 2.5384C71.6924 8.55825 75.5 18.1273 75.5 29C75.5 39.8727 71.6924 49.4417 65.9175 55.4616C65.344 56.0594 65.3638 57.009 65.9616 57.5825C66.5594 58.156 67.509 58.1362 68.0825 57.5384C74.4698 50.8801 78.5 40.5286 78.5 29C78.5 17.4714 74.4698 7.11994 68.0825 0.461601Z" fill="white" fill-opacity="0.2"/>
<path d="M54.0451 7.42404C53.4509 6.84683 52.5013 6.86063 51.924 7.45486C51.3468 8.0491 51.3606 8.99874 51.9549 9.57596C56.4977 13.9887 59.5 21.0101 59.5 29C59.5 36.9899 56.4977 44.0113 51.9549 48.424C51.3606 49.0013 51.3468 49.9509 51.924 50.5451C52.5013 51.1394 53.4509 51.1532 54.0451 50.576C59.232 45.5377 62.5 37.7093 62.5 29C62.5 20.2907 59.232 12.4623 54.0451 7.42404Z" fill="white" fill-opacity="0.2"/>
</svg>
